<svg aria-hidden="true" style="position: absolute; width: 0; height: 0; overflow: hidden;" version="1.1"
  xmlns="http://www.w3.org/2000/svg" xmlns:xlink="http://www.w3.org/1999/xlink">
  <defs>
    <symbol id="logo" viewBox="0 0 48 32">
      <path
        d="M45.493 10.060c1.083-0.384 1.863-1.42 1.863-2.638 0-1.545-1.251-2.801-2.788-2.801s-2.788 1.256-2.788 2.801c0 0.88 0.408 1.665 1.042 2.179l-3.68 3.696c-0.936 0.94-2.182 1.458-3.506 1.458-1.556 0-3.040-0.748-3.972-1.999l-5.967-8.019c-0.001-0.002-0.004-0.004-0.005-0.006 0.479-0.503 0.775-1.182 0.775-1.931 0-1.544-1.251-2.801-2.788-2.801s-2.788 1.256-2.788 2.801c0 0.772 0.313 1.472 0.818 1.978l-6.010 7.997c-0.932 1.239-2.411 1.98-3.962 1.98-1.312 0-2.595-0.537-3.519-1.472l-3.657-3.699c0.621-0.515 1.018-1.292 1.018-2.161 0-1.545-1.251-2.801-2.788-2.801s-2.788 1.256-2.788 2.801c0 1.251 0.822 2.313 1.952 2.67-0.008 0.134 0.001 0.271 0.035 0.407l2.921 11.776c0.147 0.594 0.678 1.012 1.288 1.012h17.526c0.002 0 0.004 0 0.007 0l17.526-0.089c0.607-0.004 1.134-0.42 1.281-1.010l2.921-11.732c0.033-0.133 0.042-0.266 0.035-0.397zM42.252 27.465v3.2c0 0.737-0.594 1.334-1.328 1.334h-34.344c-0.733 0-1.328-0.597-1.328-1.334v-3.2c0-0.736 0.595-1.333 1.328-1.333h34.344c0.733 0 1.328 0.597 1.328 1.333z">
      </path>
    </symbol>

    <symbol id="menu" viewBox="0 0 32 32">
      <path d="M1.087 21.73l14.399-14.399 15.377 15.377-1.543 1.543-13.759-13.759-12.856 12.857-1.619-1.619z"></path>
    </symbol>

    <symbol id="open-menu" viewBox="0 0 32 32">
      <path
        d="M1.677 6.71h28.516c0.926 0 1.677 0.751 1.677 1.677s-0.751 1.677-1.677 1.677h-28.516c-0.926 0-1.677-0.751-1.677-1.677s0.751-1.677 1.677-1.677z">
      </path>
      <path
        d="M1.677 14.194h28.516c0.926 0 1.677 0.751 1.677 1.677s-0.751 1.677-1.677 1.677h-28.516c-0.926 0-1.677-0.751-1.677-1.677s0.751-1.677 1.677-1.677z">
      </path>
      <path
        d="M1.677 21.677h28.516c0.926 0 1.677 0.751 1.677 1.677s-0.751 1.677-1.677 1.677h-28.516c-0.926 0-1.677-0.751-1.677-1.677s0.751-1.677 1.677-1.677z">
      </path>
    </symbol>

    <symbol id="close-menu" viewBox="0 0 32 32">
      <path
        d="M23.733 10.304l-1.504-1.504-5.963 5.963-5.963-5.963-1.504 1.504 5.963 5.963-5.963 5.963 1.504 1.504 5.963-5.963 5.963 5.963 1.504-1.504-5.963-5.963 5.963-5.963z">
      </path>
    </symbol>

    <symbol id="youtube-link" viewBox="0 0 31 32">
      <path fill="#fff" style="fill: var(--color1, #fff)"
        d="M15.384 1.227c-8.497 0-15.385 6.888-15.385 15.384 0 8.498 6.888 15.386 15.385 15.386s15.385-6.888 15.385-15.386c0-8.496-6.888-15.384-15.385-15.384zM20.702 17.427l-7.692 4.809c-0.156 0.097-0.333 0.146-0.51 0.146-0.16 0-0.321-0.040-0.466-0.121-0.306-0.169-0.495-0.492-0.495-0.84v-9.616c0-0.349 0.19-0.672 0.495-0.841 0.306-0.171 0.679-0.161 0.976 0.026l7.692 4.807c0.281 0.177 0.452 0.485 0.452 0.815 0 0.332-0.171 0.641-0.452 0.816z">
      </path>
    </symbol>


  </defs>
</svg>