<svg aria-hidden="true" style="position: absolute; width: 0; height: 0; overflow: hidden;" version="1.1"
  xmlns="http://www.w3.org/2000/svg" xmlns:xlink="http://www.w3.org/1999/xlink">
  <defs>
    <symbol id="logo" viewBox="0 0 48 32">
      <path
        d="M45.493 10.060c1.083-0.384 1.863-1.42 1.863-2.638 0-1.545-1.251-2.801-2.788-2.801s-2.788 1.256-2.788 2.801c0 0.88 0.408 1.665 1.042 2.179l-3.68 3.696c-0.936 0.94-2.182 1.458-3.506 1.458-1.556 0-3.040-0.748-3.972-1.999l-5.967-8.019c-0.001-0.002-0.004-0.004-0.005-0.006 0.479-0.503 0.775-1.182 0.775-1.931 0-1.544-1.251-2.801-2.788-2.801s-2.788 1.256-2.788 2.801c0 0.772 0.313 1.472 0.818 1.978l-6.010 7.997c-0.932 1.239-2.411 1.98-3.962 1.98-1.312 0-2.595-0.537-3.519-1.472l-3.657-3.699c0.621-0.515 1.018-1.292 1.018-2.161 0-1.545-1.251-2.801-2.788-2.801s-2.788 1.256-2.788 2.801c0 1.251 0.822 2.313 1.952 2.67-0.008 0.134 0.001 0.271 0.035 0.407l2.921 11.776c0.147 0.594 0.678 1.012 1.288 1.012h17.526c0.002 0 0.004 0 0.007 0l17.526-0.089c0.607-0.004 1.134-0.42 1.281-1.010l2.921-11.732c0.033-0.133 0.042-0.266 0.035-0.397zM42.252 27.465v3.2c0 0.737-0.594 1.334-1.328 1.334h-34.344c-0.733 0-1.328-0.597-1.328-1.334v-3.2c0-0.736 0.595-1.333 1.328-1.333h34.344c0.733 0 1.328 0.597 1.328 1.333z">
      </path>
    </symbol>

    <symbol id="menu" viewBox="0 0 32 32">
      <path d="M1.087 21.73l14.399-14.399 15.377 15.377-1.543 1.543-13.759-13.759-12.856 12.857-1.619-1.619z"></path>
    </symbol>

    <symbol id="open-menu" viewBox="0 0 32 32">
      <path
        d="M1.677 6.71h28.516c0.926 0 1.677 0.751 1.677 1.677s-0.751 1.677-1.677 1.677h-28.516c-0.926 0-1.677-0.751-1.677-1.677s0.751-1.677 1.677-1.677z">
      </path>
      <path
        d="M1.677 14.194h28.516c0.926 0 1.677 0.751 1.677 1.677s-0.751 1.677-1.677 1.677h-28.516c-0.926 0-1.677-0.751-1.677-1.677s0.751-1.677 1.677-1.677z">
      </path>
      <path
        d="M1.677 21.677h28.516c0.926 0 1.677 0.751 1.677 1.677s-0.751 1.677-1.677 1.677h-28.516c-0.926 0-1.677-0.751-1.677-1.677s0.751-1.677 1.677-1.677z">
      </path>
    </symbol>

    <symbol id="close-menu" viewBox="0 0 32 32">
      <path
        d="M23.733 10.304l-1.504-1.504-5.963 5.963-5.963-5.963-1.504 1.504 5.963 5.963-5.963 5.963 1.504 1.504 5.963-5.963 5.963 5.963 1.504-1.504-5.963-5.963 5.963-5.963z">
      </path>
    </symbol>

    <symbol id="youtube-link" viewBox="0 0 31 32">
      <path fill="#fff" style="fill: var(--color1, #fff)"
        d="M15.384 1.227c-8.497 0-15.385 6.888-15.385 15.384 0 8.498 6.888 15.386 15.385 15.386s15.385-6.888 15.385-15.386c0-8.496-6.888-15.384-15.385-15.384zM20.702 17.427l-7.692 4.809c-0.156 0.097-0.333 0.146-0.51 0.146-0.16 0-0.321-0.040-0.466-0.121-0.306-0.169-0.495-0.492-0.495-0.84v-9.616c0-0.349 0.19-0.672 0.495-0.841 0.306-0.171 0.679-0.161 0.976 0.026l7.692 4.807c0.281 0.177 0.452 0.485 0.452 0.815 0 0.332-0.171 0.641-0.452 0.816z">
      </path>
    </symbol>


    <symbol id="star" viewBox="0 0 33 32">
      <path
        d="M16.376 2.302c-0.042 0.042-0.151 0.208-0.244 0.371-0.091 0.163-0.267 0.472-0.389 0.688-0.244 0.42-0.68 1.272-0.898 1.752-0.21 0.462-1.464 3.184-1.666 3.62-0.296 0.631-0.587 1.194-0.724 1.401-0.195 0.291-0.47 0.558-0.688 0.67-0.314 0.161-1.004 0.324-2.437 0.576-0.213 0.039-0.576 0.101-0.805 0.143s-0.683 0.122-1.012 0.179c-2.881 0.509-3.335 0.597-4.212 0.81-0.625 0.151-0.747 0.197-0.773 0.298s0.031 0.187 0.361 0.545c0.257 0.275 0.475 0.535 0.68 0.805 0.187 0.247 0.802 0.828 1.326 1.248 0.054 0.044 0.241 0.197 0.415 0.337s0.537 0.433 0.807 0.651c0.272 0.218 0.527 0.426 0.568 0.459s0.221 0.179 0.4 0.324c0.179 0.145 0.348 0.283 0.376 0.306s0.176 0.143 0.324 0.265c0.151 0.119 0.278 0.226 0.285 0.234s0.088 0.075 0.182 0.153c0.26 0.218 0.779 0.753 0.895 0.924 0.291 0.431 0.41 0.815 0.407 1.311 0 0.4-0.060 0.792-0.28 1.869-0.093 0.449-0.179 0.869-0.192 0.934s-0.093 0.462-0.182 0.882c-0.356 1.718-0.553 2.707-0.62 3.109-0.117 0.677-0.234 1.78-0.202 1.9 0.052 0.208 0.176 0.215 0.641 0.044 0.179-0.065 0.465-0.161 0.636-0.215 0.171-0.052 0.418-0.135 0.545-0.184 0.221-0.086 1.132-0.529 1.199-0.584 0.018-0.013 0.135-0.080 0.26-0.148 0.125-0.070 0.311-0.171 0.41-0.228 0.169-0.096 1.267-0.711 1.791-1.002 0.13-0.073 0.327-0.182 0.441-0.247 1.334-0.745 1.806-0.963 2.375-1.1 0.208-0.049 0.799-0.042 1.025 0.010 0.522 0.127 0.841 0.265 2.089 0.908 0.919 0.475 1.212 0.628 1.388 0.721 0.101 0.055 0.356 0.187 0.566 0.296 0.213 0.109 0.428 0.223 0.48 0.254 0.218 0.122 1.277 0.644 1.433 0.703 0.309 0.119 0.654 0.221 1.098 0.317 0.109 0.023 0.319 0.083 0.465 0.132 0.465 0.156 0.592 0.112 0.592-0.213 0-0.478-0.161-1.583-0.457-3.12-0.151-0.786-0.319-1.671-0.467-2.437-0.511-2.681-0.529-2.785-0.548-3.278-0.010-0.35-0.008-0.392 0.055-0.605 0.067-0.228 0.249-0.623 0.301-0.654 0.016-0.010 0.036-0.039 0.047-0.065 0.036-0.096 0.483-0.579 0.758-0.818 0.228-0.2 0.95-0.812 1.033-0.877 0.052-0.039 0.101-0.080 0.109-0.091s0.073-0.065 0.143-0.119c0.073-0.057 0.143-0.114 0.156-0.13 0.016-0.016 0.086-0.075 0.156-0.13 0.073-0.057 0.151-0.122 0.174-0.143 0.023-0.023 0.060-0.055 0.078-0.067 0.075-0.060 0.322-0.262 0.358-0.298 0.023-0.021 0.086-0.075 0.14-0.117 0.055-0.044 0.114-0.091 0.13-0.104 0.016-0.016 0.093-0.078 0.171-0.143s0.148-0.122 0.156-0.13c0.008-0.008 0.078-0.065 0.156-0.13 0.151-0.122 0.273-0.228 0.392-0.337 0.039-0.036 0.153-0.135 0.254-0.218 0.202-0.174 0.732-0.709 0.911-0.921 0.202-0.244 0.558-0.633 0.916-1.002 0.176-0.184 0.21-0.244 0.195-0.353-0.013-0.101-0.151-0.143-0.747-0.241-1.147-0.187-1.573-0.236-5.593-0.651-1.845-0.189-2.502-0.28-2.855-0.395-0.457-0.145-0.701-0.402-1.119-1.176-0.161-0.301-1.111-2.211-1.56-3.14-0.503-1.043-1.269-2.567-1.453-2.894-0.446-0.792-0.776-1.347-0.854-1.43-0.099-0.106-0.166-0.112-0.27-0.018z">
      </path>
    </symbol>

  </defs>
</svg>